<svg width="128" height="127" viewBox="0 0 128 127" fill="none" xmlns="http://www.w3.org/2000/svg">
<g filter="url(#filter0_b_1_126)">
<circle cx="63.79" cy="63.085" r="50" fill="#FCFFFE" fill-opacity="0.12"/>
</g>
<path fill-rule="evenodd" clip-rule="evenodd" d="M77.5106 38.9555C77.1508 39.3386 77.2385 39.629 78.2343 41.3524C78.7505 42.2458 79.1729 43.0172 79.1729 43.0668C79.1729 43.1162 70.5596 48.9437 60.0321 56.0166C49.5048 63.0895 40.8137 68.9661 40.7185 69.0758C40.335 69.518 40.7002 70.3399 41.2802 70.3399C41.4174 70.3399 48.9213 66.7773 57.9556 62.4231C82.6675 50.5127 83.1673 50.2724 83.2607 50.2535C83.3084 50.2439 83.7935 51.0004 84.3386 51.9348C85.4215 53.7907 85.6136 53.9806 86.1738 53.7485C86.3296 53.684 86.5065 53.5341 86.567 53.4155C86.7068 53.1409 89.5459 42.5305 89.5459 42.2821C89.5459 41.7293 89.4057 41.6783 83.7182 40.162C77.9578 38.6263 77.8413 38.6036 77.5106 38.9555ZM75.5625 59.5179L75.32 59.7603V73.5012V87.2421L75.5625 87.4846L75.805 87.7271H82.433H89.0609L89.3034 87.4846L89.5459 87.2421V73.5012V59.7603L89.3034 59.5179L89.0609 59.2754H82.433H75.805L75.5625 59.5179ZM58.1754 67.4212L57.9328 67.6636V77.4529V87.2421L58.1754 87.4846L58.4178 87.7271H65.0458H71.6737L71.9162 87.4846L72.1587 87.2421V77.4529V67.6636L71.9162 67.4212L71.6737 67.1786H65.0458H58.4178L58.1754 67.4212ZM40.7882 75.3244L40.5457 75.5668V81.4045V87.2421L40.7882 87.4846L41.0306 87.7271H47.6586H54.2866L54.529 87.4846L54.7715 87.2421V81.4045V75.5668L54.529 75.3244L54.2866 75.0819H47.6586H41.0306L40.7882 75.3244Z" fill="#FCFFFE" fill-opacity="0.8"/>
<defs>
<filter id="filter0_b_1_126" x="2.79004" y="2.08496" width="122" height="122" filterUnits="userSpaceOnUse" color-interpolation-filters="sRGB">
<feFlood flood-opacity="0" result="BackgroundImageFix"/>
<feGaussianBlur in="BackgroundImageFix" stdDeviation="5.5"/>
<feComposite in2="SourceAlpha" operator="in" result="effect1_backgroundBlur_1_126"/>
<feBlend mode="normal" in="SourceGraphic" in2="effect1_backgroundBlur_1_126" result="shape"/>
</filter>
</defs>
</svg>
