<svg width="127" height="126" viewBox="0 0 127 126" fill="none" xmlns="http://www.w3.org/2000/svg">
<g filter="url(#filter0_b_207_96)">
<circle cx="63.4305" cy="63.0701" r="62.7967" fill="#EA2663" fill-opacity="0.15"/>
</g>
<g clip-path="url(#clip0_207_96)">
<path fill-rule="evenodd" clip-rule="evenodd" d="M63.0154 35.4068C49.6486 36.9298 40.3398 50.5957 44.3934 62.7451C45.9773 67.4917 48.5271 71.0886 57.6932 81.5054C60.7205 84.9458 62.7204 87.3815 64.0609 89.2603C65.024 90.6105 65.302 90.8181 65.7515 90.5235C66.0698 90.315 66.1634 90.2008 67.6356 88.2264C69.0345 86.3503 70.612 84.4709 74.6997 79.8106C84.4185 68.7301 87.1679 63.9883 87.4074 57.8942C87.9266 44.6857 76.2288 33.9012 63.0154 35.4068ZM67.7475 45.9885C71.959 46.7865 75.2945 49.9981 76.5312 54.4461C76.8564 55.6155 76.8264 58.7282 76.4779 59.9982C74.7517 66.2883 68.2126 69.8734 62.0247 67.9226C58.3506 66.7642 55.499 63.7762 54.4622 59.9982C54.1136 58.7282 54.0837 55.6155 54.4089 54.4461C56.1187 48.2962 61.5964 44.823 67.7475 45.9885ZM57.6971 85.6645C52.6108 87.383 51.831 91.0246 56.0786 93.2216C61.8449 96.2041 72.9729 95.5556 76.5263 92.0301C78.8302 89.7441 77.3611 87.0536 73.0116 85.5936L72.082 85.2815L71.8444 85.5643C70.8266 86.7753 68.6739 89.5136 68.1129 90.3108C67.0183 91.8661 65.9538 92.4721 64.8184 92.1862C64.1606 92.0206 63.7609 91.6383 62.8154 90.2703C62.4161 89.6927 61.811 88.8718 61.4708 88.4462C60.4938 87.2245 58.8717 85.3156 58.8075 85.3122C58.7753 85.3105 58.2756 85.4691 57.6971 85.6645Z" fill="#D0D4D3"/>
</g>
<defs>
<filter id="filter0_b_207_96" x="-10.3662" y="-10.7266" width="147.593" height="147.593" filterUnits="userSpaceOnUse" color-interpolation-filters="sRGB">
<feFlood flood-opacity="0" result="BackgroundImageFix"/>
<feGaussianBlur in="BackgroundImageFix" stdDeviation="5.5"/>
<feComposite in2="SourceAlpha" operator="in" result="effect1_backgroundBlur_207_96"/>
<feBlend mode="normal" in="SourceGraphic" in2="effect1_backgroundBlur_207_96" result="shape"/>
</filter>
<clipPath id="clip0_207_96">
<rect width="59.8488" height="59.8488" fill="white" transform="translate(35.5061 35.2661)"/>
</clipPath>
</defs>
</svg>
