<svg width="127" height="127" viewBox="0 0 127 127" fill="none" xmlns="http://www.w3.org/2000/svg">
<g filter="url(#filter0_b_1_119)">
<circle cx="63.5" cy="63.6028" r="50" fill="#FCFFFE" fill-opacity="0.12"/>
</g>
<g clip-path="url(#clip0_1_119)">
<path fill-rule="evenodd" clip-rule="evenodd" d="M82.0437 39.4403C75.6579 40.7839 70.4104 41.9038 70.3826 41.9291C70.3547 41.9546 71.8672 43.5111 73.7435 45.3882L77.155 48.801L73.7151 52.2396C71.8231 54.1309 70.2987 55.7019 70.3275 55.7308C70.3564 55.7596 75.5786 54.7119 81.9325 53.4025L93.4851 51.0218L90.039 47.5738L86.5928 44.1257L90.1535 40.5857C92.112 38.6386 93.7008 37.0347 93.6842 37.0216C93.6678 37.0084 88.4295 38.0968 82.0437 39.4403ZM56.2388 40.6062L52.7119 44.1344L57.4067 48.8281L62.1013 53.5218L65.6556 49.9663L69.2099 46.4108L64.5444 41.7444C61.9785 39.1779 59.8535 37.078 59.8224 37.078C59.7912 37.078 58.1786 38.6657 56.2388 40.6062ZM46.1436 50.7163C43.8488 53.023 41.7446 55.2105 41.4681 55.5771C36.4057 62.287 35.5233 70.95 39.148 78.3538C44.3753 89.0308 57.184 93.5064 67.9093 88.4032C70.885 86.9874 71.9725 86.1093 77.0436 81.0277L80.9874 77.0757L76.2979 72.3861L71.6084 67.6967L67.7432 71.5308C64.745 74.5049 63.6909 75.4806 63.0446 75.8806C59.6773 77.9644 55.4295 77.4661 52.6948 74.6663C51.0152 72.9471 50.3176 71.2156 50.3302 68.7987C50.3456 65.8994 50.9395 64.7977 54.3389 61.3641C55.6145 60.0756 57.3564 58.3079 58.2097 57.4358L59.7613 55.8502L55.0982 51.1861C52.5335 48.6209 50.4083 46.522 50.3758 46.522C50.3431 46.522 48.4386 48.4094 46.1436 50.7163ZM77.46 61.8274L73.9331 65.3556L78.6279 70.0493L83.3225 74.743L86.8768 71.1875L90.4311 67.632L85.7656 62.9656C83.1997 60.3991 81.0747 58.2992 81.0436 58.2992C81.0124 58.2992 79.3998 59.8869 77.46 61.8274Z" fill="#FCFFFE" fill-opacity="0.8"/>
</g>
<defs>
<filter id="filter0_b_1_119" x="2.5" y="2.60278" width="122" height="122" filterUnits="userSpaceOnUse" color-interpolation-filters="sRGB">
<feFlood flood-opacity="0" result="BackgroundImageFix"/>
<feGaussianBlur in="BackgroundImageFix" stdDeviation="5.5"/>
<feComposite in2="SourceAlpha" operator="in" result="effect1_backgroundBlur_1_119"/>
<feBlend mode="normal" in="SourceGraphic" in2="effect1_backgroundBlur_1_119" result="shape"/>
</filter>
<clipPath id="clip0_1_119">
<rect width="59.8488" height="59.8488" fill="white" transform="translate(33.8357 33.6431)"/>
</clipPath>
</defs>
</svg>
