<svg width="128" height="127" viewBox="0 0 128 127" fill="none" xmlns="http://www.w3.org/2000/svg">
<g filter="url(#filter0_b_1_140)">
<circle cx="64.0171" cy="63.8596" r="50" fill="#FCFFFE" fill-opacity="0.12"/>
</g>
<path fill-rule="evenodd" clip-rule="evenodd" d="M46.0361 37.7034L47.9501 40.2511L47.6448 40.4751C38.1391 47.45 33.7193 59.2417 36.3956 70.487C39.1767 82.1727 48.726 90.6764 60.8947 92.3035L62.0429 92.457L62.1491 92.0546C62.8598 89.3616 64.4973 82.6024 64.4555 82.5347C64.4253 82.486 63.9331 82.4119 63.3614 82.37C56.2593 81.8496 50.3482 77.8583 47.4211 71.6069C44.3305 65.0063 45.5843 56.8598 50.5245 51.4431C51.7182 50.1342 53.9009 48.2544 54.0518 48.4053C54.0742 48.4277 55.0466 49.7183 56.2126 51.2733L58.3327 54.1006L58.4463 53.6709C58.6835 52.7747 63.0499 35.2672 63.0499 35.2129C63.0499 35.1814 58.7912 35.1558 53.586 35.1558H44.1221L46.0361 37.7034ZM66.4144 35.5933C65.7038 38.2863 64.0662 45.0455 64.1081 45.1131C64.1382 45.1618 64.6305 45.236 65.2022 45.2779C70.6542 45.6774 75.2171 48.0065 78.6098 52.1215C83.9225 58.5656 84.2558 67.7596 79.4233 74.5697C78.274 76.1894 74.7878 79.5185 74.5207 79.2514C74.4934 79.2241 73.517 77.9296 72.351 76.3745L70.2309 73.5473L70.1172 73.9769C69.88 74.8732 65.5136 92.3807 65.5136 92.435C65.5136 92.4665 69.7727 92.4921 74.9783 92.4921H84.443L82.615 90.0564C81.6096 88.7169 80.7534 87.565 80.7126 87.4968C80.6689 87.424 81.0642 87.0571 81.6707 86.6076C83.775 85.0481 86.8499 81.7172 88.3853 79.3339C92.6807 72.6663 93.994 64.6546 92.0565 56.9368C89.1622 45.4069 79.5787 36.9213 67.6689 35.343L66.5207 35.1908L66.4144 35.5933ZM62.8653 52.3905C58.0976 53.7549 58.0976 60.7074 62.8653 62.0382C63.5093 62.2181 63.5321 62.2353 63.2179 62.3056C61.2637 62.7426 60.6679 62.9721 59.5931 63.702C57.1556 65.3572 55.8829 67.8942 55.8829 71.0983V72.3348H64.2818H72.6807V71.0983C72.6807 66.8546 70.1524 63.4213 66.3806 62.5434C65.9962 62.4539 65.5304 62.3454 65.3456 62.3023L65.0097 62.2239L65.4354 62.1286C66.2552 61.945 67.1309 61.4388 67.816 60.7524C71.4833 57.078 67.8615 50.9607 62.8653 52.3905Z" fill="#FCFFFE" fill-opacity="0.8"/>
<defs>
<filter id="filter0_b_1_140" x="3.01709" y="2.85962" width="122" height="122" filterUnits="userSpaceOnUse" color-interpolation-filters="sRGB">
<feFlood flood-opacity="0" result="BackgroundImageFix"/>
<feGaussianBlur in="BackgroundImageFix" stdDeviation="5.5"/>
<feComposite in2="SourceAlpha" operator="in" result="effect1_backgroundBlur_1_140"/>
<feBlend mode="normal" in="SourceGraphic" in2="effect1_backgroundBlur_1_140" result="shape"/>
</filter>
</defs>
</svg>
