<svg width="128" height="127" viewBox="0 0 128 127" fill="none" xmlns="http://www.w3.org/2000/svg">
<g filter="url(#filter0_b_1_147)">
<circle cx="64.4897" cy="63.9172" r="50" fill="#FCFFFE" fill-opacity="0.12"/>
</g>
<g clip-path="url(#clip0_1_147)">
<path fill-rule="evenodd" clip-rule="evenodd" d="M79.2609 34.2432C78.667 34.578 77.735 34.7659 75.2546 35.0506C71.4637 35.486 69.9737 35.8693 68.3308 36.8323C64.811 38.8951 63.6912 43.3167 65.768 46.9512C66.6238 48.4489 67.7565 48.2422 67.9242 46.5576C68.2616 43.1687 70.0617 40.4297 72.8879 39.0052C73.4918 38.7008 73.4965 38.7232 72.9785 39.4441C70.2149 43.2909 68.7817 50.0119 68.3444 61.1751C68.2307 64.0803 68.2699 64.386 68.8396 65.0348C69.4735 65.7568 70.2734 65.953 71.1279 65.5959C71.7685 65.3282 72.0678 64.998 72.5674 64.0076C73.084 62.9834 73.6357 62.2157 74.4791 61.3474L75.0739 60.7351L75.5709 61.1932C77.37 62.8517 80.3173 63.0848 82.358 61.7302C83.329 61.0859 84.1692 60.0995 85.7061 57.8004C86.4579 56.6758 87.124 55.6872 87.1864 55.6034C87.2487 55.5196 87.2751 55.4347 87.2451 55.4146C86.0768 54.634 84.9728 53.8461 84.1362 53.1956C81.3431 51.0245 78.7776 50.6146 76.4648 51.97C74.5374 53.0997 73.175 55.7989 74.5367 55.7903C74.7121 55.7891 75.2521 55.6809 75.7367 55.5497C76.7437 55.2771 79.1348 55.1263 80.3645 55.258C81.3491 55.3634 81.3106 55.4104 80.1174 55.5601C77.2541 55.9191 74.5607 57.2228 72.5942 59.2018L71.7425 60.0588L71.743 59.2471C71.7438 57.7954 72.1369 53.1186 72.4232 51.1534L72.5086 50.5675L73.1535 50.4758C75.0572 50.205 77.2674 48.4569 78.558 46.2012C80.0634 43.5703 80.4914 40.5764 79.9583 36.4061C79.6571 34.0501 79.649 34.0246 79.2609 34.2432ZM59.76 51.3701C58.2498 51.7331 57.6421 52.0682 55.3092 53.8252C54.3797 54.5252 53.4619 55.1793 53.27 55.2786L52.921 55.4591L53.2149 55.7726C53.3765 55.9449 53.9363 56.7625 54.4586 57.5894C56.8871 61.4335 58.4024 62.6085 60.9268 62.6045C64.3489 62.5991 66.936 59.7505 65.2562 57.8374C64.4647 56.9359 61.6516 55.8303 59.4076 55.5384C58.3792 55.4048 58.3285 55.3864 58.7615 55.3046C60.279 55.0174 63.1304 55.2524 64.7763 55.8002C66.6037 56.4082 66.9273 55.5253 65.6036 53.543C64.413 51.76 61.9493 50.8439 59.76 51.3701ZM54.0037 66.3144C52.9784 66.4994 51.4945 66.9777 50.6557 67.3938C48.8763 68.2763 48.7145 68.4218 40.3571 76.6543L35.8147 81.1287L42.2539 87.567L48.6929 94.0052L50.8173 90.8218L52.9418 87.6384L63.7812 87.5999C73.4196 87.5657 74.6924 87.5401 75.2685 87.3685C76.5554 86.9853 77.2916 86.6565 78.1219 86.0941C79.0245 85.4829 95.2464 71.1024 95.6298 70.5735C96.7212 69.0687 95.0373 67.2863 92.5241 67.2863C90.4697 67.2863 90.2739 67.4014 81.8901 73.5366L74.5548 78.9046L70.255 78.9917L65.9552 79.0787L64.8262 77.9496L63.697 76.8204L68.0427 76.819C71.4336 76.8179 72.5272 76.7807 73.0194 76.6497C77.1712 75.5447 77.9197 70.7434 74.2291 68.8896C73.1272 68.3362 72.3519 68.2493 68.4532 68.2426C64.2693 68.2354 63.6498 68.1552 61.8502 67.3864C59.1129 66.2171 56.5129 65.8619 54.0037 66.3144Z" fill="#FCFFFE" fill-opacity="0.8"/>
</g>
<defs>
<filter id="filter0_b_1_147" x="3.48975" y="2.91724" width="122" height="122" filterUnits="userSpaceOnUse" color-interpolation-filters="sRGB">
<feFlood flood-opacity="0" result="BackgroundImageFix"/>
<feGaussianBlur in="BackgroundImageFix" stdDeviation="5.5"/>
<feComposite in2="SourceAlpha" operator="in" result="effect1_backgroundBlur_1_147"/>
<feBlend mode="normal" in="SourceGraphic" in2="effect1_backgroundBlur_1_147" result="shape"/>
</filter>
<clipPath id="clip0_1_147">
<rect width="59.8488" height="59.8488" fill="white" transform="translate(34.8254 33.9575)"/>
</clipPath>
</defs>
</svg>
