<svg width="128" height="127" viewBox="0 0 128 127" fill="none" xmlns="http://www.w3.org/2000/svg">
<g filter="url(#filter0_b_1_133)">
<circle cx="63.8354" cy="63.8462" r="50" fill="#FCFFFE" fill-opacity="0.12"/>
</g>
<g clip-path="url(#clip0_1_133)">
<path fill-rule="evenodd" clip-rule="evenodd" d="M53.7453 34.3422C53.4448 34.585 53.4267 34.6938 53.3631 36.6337L53.2963 38.6702L52.1608 38.9727C50.7555 39.3469 49.0802 40.0478 47.8635 40.7706L46.9389 41.3199L45.776 40.1305C43.7036 38.0106 43.7593 38.0079 41.4366 40.337C39.1424 42.6378 39.1583 42.4919 40.998 44.3588L42.4267 45.8086L41.7601 46.9712C40.9616 48.364 40.4871 49.5157 40.0806 51.0486L39.7784 52.1881L37.7419 52.2549C35.0303 52.3439 35.1953 52.1362 35.1953 55.461C35.1953 58.7858 35.0303 58.5781 37.7419 58.6671L39.7784 58.7339L40.0922 59.9168C40.464 61.3191 41.1391 62.9217 41.8913 64.188L42.4357 65.1042L41.0024 66.5587C39.1576 68.4309 39.1417 68.2836 41.4366 70.585C43.7561 72.9109 43.6525 72.9054 45.7818 70.8124C46.9103 69.7029 47.0148 69.6323 47.2737 69.8013C48.6228 70.6823 50.4785 71.4974 52.1608 71.9477L53.2963 72.2518L53.3631 74.2883C53.4521 76.9999 53.2443 76.8349 56.5692 76.8349C59.894 76.8349 59.6863 76.9999 59.7752 74.2883L59.842 72.2518L60.9815 71.9496C62.5144 71.5431 63.6662 71.0686 65.059 70.27L66.2216 69.6034L67.6714 71.0321C69.5383 72.8719 69.3924 72.8878 71.6932 70.5936C74.0108 68.2824 74.0065 68.3453 71.9865 66.2811L70.7442 65.0117L71.201 64.2773C71.8745 63.195 72.6833 61.285 73.0433 59.9275L73.3599 58.7339L75.3965 58.6671C78.108 58.5781 77.943 58.7858 77.943 55.461C77.943 52.1362 78.108 52.3439 75.3965 52.2549L73.3599 52.1881L73.0461 51.0052C72.6744 49.603 71.9992 48.0003 71.247 46.7341L70.7026 45.8178L72.1359 44.3633C73.9822 42.4897 73.9983 42.6376 71.6954 40.3347C69.3932 38.0325 69.5398 38.0487 67.6714 39.8899L66.2216 41.3186L65.059 40.652C63.6662 39.8534 62.5144 39.3789 60.9815 38.9724L59.842 38.6702L59.7752 36.6337C59.6863 33.9222 59.894 34.0871 56.5692 34.0871C54.2998 34.0871 54.0305 34.1115 53.7453 34.3422ZM78.7755 43.4739C76.9549 45.3008 76.9552 45.2849 78.7077 47.0687C79.4221 47.7958 80.1445 48.4254 80.3133 48.4677C81.2552 48.7042 82.0225 47.5886 81.4653 46.7931C81.2473 46.4818 81.2474 46.4817 81.6991 46.5794C86.3387 47.5818 89.7502 51.5348 90.1746 56.3996C90.322 58.0893 91.0811 58.641 91.9977 57.7245C92.4056 57.3165 92.4059 57.3156 92.3159 56.2068C91.8666 50.6691 88.2645 46.2503 82.9421 44.708C82.3069 44.5239 81.6136 44.3733 81.4013 44.3733C80.9304 44.3733 80.9253 44.3187 81.3495 43.8147C81.772 43.3125 81.774 42.8487 81.3555 42.4303C80.7017 41.7764 80.3088 41.9354 78.7755 43.4739ZM58.278 47.1197C64.9103 48.4608 67.3695 56.6721 62.5748 61.4667C57.7803 66.2614 49.569 63.8022 48.2279 57.1699C47.012 51.1567 52.2649 45.9038 58.278 47.1197ZM54.9811 49.2601C50.1372 50.5627 48.5494 56.6143 52.1504 60.0489C55.7336 63.4667 61.5271 61.7897 62.782 56.9715C63.9717 52.4041 59.5484 48.0317 54.9811 49.2601ZM80.329 68.5403C80.0562 68.7608 80.0045 68.9443 79.9468 69.8979L79.88 71.0003L79.0117 71.293C78.5341 71.454 77.8199 71.7499 77.4243 71.9505L76.7052 72.3155L76.0206 71.6394C74.8794 70.5123 74.703 70.5388 73.1751 72.0669C71.647 73.5949 71.6205 73.7712 72.7476 74.9124L73.4237 75.5971L73.0587 76.3162C72.8581 76.7117 72.5622 77.426 72.4012 77.9036L72.1085 78.7719L71.006 78.8387C69.464 78.932 69.3935 79.0314 69.3935 81.1096C69.3935 83.1879 69.464 83.2872 71.006 83.3806L72.1085 83.4474L72.4012 84.3157C72.5622 84.7933 72.8581 85.5076 73.0587 85.9031L73.4237 86.6222L72.7476 87.3069C71.6359 88.4325 71.66 88.6203 73.1048 90.0887C74.636 91.6447 74.895 91.6914 75.9904 90.6098L76.7052 89.9038L77.4243 90.2687C77.8199 90.4694 78.5341 90.7653 79.0117 90.9263L79.88 91.2189L79.9468 92.3214C80.0402 93.8634 80.1396 93.934 82.2178 93.934C84.296 93.934 84.3954 93.8634 84.4888 92.3214L84.5556 91.2189L85.4239 90.9263C85.9015 90.7653 86.6157 90.4694 87.0113 90.2687L87.7304 89.9038L88.415 90.5799C89.5562 91.7069 89.7326 91.6805 91.2605 90.1524C92.7886 88.6244 92.8151 88.4481 91.688 87.3069L91.0119 86.6222L91.3769 85.9031C91.5775 85.5076 91.8734 84.7933 92.0344 84.3157L92.3271 83.4474L93.4296 83.3806C94.9716 83.2872 95.0421 83.1879 95.0421 81.1096C95.0421 79.0314 94.9716 78.932 93.4296 78.8387L92.3271 78.7719L92.0344 77.9036C91.8734 77.426 91.5775 76.7117 91.3769 76.3162L91.0119 75.5971L91.688 74.9124C92.7997 73.7868 92.7756 73.599 91.3308 72.1306C89.7996 70.5746 89.5406 70.5278 88.4452 71.6095L87.7304 72.3155L87.0113 71.9505C86.6157 71.7499 85.9015 71.454 85.4239 71.293L84.5556 71.0003L84.4888 69.8979C84.3954 68.3559 84.296 68.2853 82.2178 68.2853C80.8687 68.2853 80.5994 68.3217 80.329 68.5403ZM44.0728 76.0941C43.6744 76.4924 43.6402 77.2689 43.9442 79.0117C44.8405 84.1519 48.9068 88.3522 53.9823 89.3808L55.0691 89.6011L54.7504 89.9715C54.054 90.7813 54.7786 92.0067 55.802 91.7498C56.3952 91.601 58.7066 89.0869 58.7066 88.5905C58.7066 88.0941 56.3952 85.58 55.802 85.4312C54.8601 85.1947 54.0927 86.3103 54.6501 87.1059C54.8563 87.4006 54.8546 87.4136 54.6167 87.344C54.4783 87.3037 54.0945 87.2008 53.7638 87.1157C49.3762 85.9856 45.9198 81.5741 45.8869 77.0626C45.8812 76.2765 45.4586 75.7662 44.8135 75.7662C44.5533 75.7662 44.2795 75.8873 44.0728 76.0941ZM84.4892 76.2496C87.8272 77.8127 88.6091 82.2836 86.0004 84.8923C83.9357 86.957 80.4782 86.9634 78.4211 84.9063C76.5353 83.0205 76.363 79.8167 78.0336 77.7039C79.4703 75.8869 82.3359 75.2413 84.4892 76.2496ZM80.7791 78.1792C78.536 79.3169 78.3657 82.3703 80.463 83.8444C80.9984 84.2207 81.1209 84.2489 82.2178 84.2489C83.3147 84.2489 83.4372 84.2207 83.9726 83.8444C85.0444 83.0911 85.3571 82.4734 85.3571 81.1096C85.3571 79.746 85.0444 79.1282 83.9733 78.3754C83.1896 77.8246 81.6629 77.7308 80.7791 78.1792Z" fill="#FCFFFE" fill-opacity="0.8"/>
</g>
<defs>
<filter id="filter0_b_1_133" x="2.83545" y="2.84619" width="122" height="122" filterUnits="userSpaceOnUse" color-interpolation-filters="sRGB">
<feFlood flood-opacity="0" result="BackgroundImageFix"/>
<feGaussianBlur in="BackgroundImageFix" stdDeviation="5.5"/>
<feComposite in2="SourceAlpha" operator="in" result="effect1_backgroundBlur_1_133"/>
<feBlend mode="normal" in="SourceGraphic" in2="effect1_backgroundBlur_1_133" result="shape"/>
</filter>
<clipPath id="clip0_1_133">
<rect width="59.8488" height="59.8488" fill="white" transform="translate(34.1711 33.8862)"/>
</clipPath>
</defs>
</svg>
